<?xml version="1.0" encoding="UTF-8"?>
<svg version="1.1" xmlns="http://www.w3.org/2000/svg" width="256" height="296">
<path d="M0 0 C7.26 0 14.52 0 22 0 C22.33 19.14 22.66 38.28 23 58 C25.97 55.36 28.94 52.72 32 50 C44.94698831 42.73705534 58.60693259 41.68456635 73 45 C80.60647222 47.38371841 87.00999627 50.75223587 93 56 C93.88945312 56.73283203 93.88945312 56.73283203 94.796875 57.48046875 C104.30476899 65.99971005 109.25554816 78.67784514 110.15966797 91.21386719 C111.04531953 109.0665448 108.09776803 125.06782953 96 139 C82.20433867 151.66838939 67.60964412 153.94303425 49.55029297 153.18652344 C39.41881864 152.44552723 31.53428356 147.57562024 24 141 C23.34 140.01 22.68 139.02 22 138 C21.67 141.96 21.34 145.92 21 150 C14.07 150 7.14 150 0 150 C0 100.5 0 51 0 0 Z M28 76 C21.57665003 86.13198158 20.19828927 97.52681181 22.68359375 109.21484375 C26.07660354 119.25308434 31.67166196 125.98085882 41 131 C49.09116046 134.42318327 59.69466019 134.33741449 67.87890625 131.09375 C77.20873422 126.28278898 82.23780264 119.44512717 86.3125 109.9375 C88.91166694 98.83196854 88.0640709 88.37729781 82.46484375 78.25 C77.19734211 70.15911749 69.76457662 65.56642851 60.3515625 63.38671875 C47.6721955 61.30157368 36.16096248 66.22812127 28 76 Z " fill="#FEFEFE" transform="translate(136,136)"/>
<path d="M0 0 C3.88125861 1.11234838 5.52300252 3.40268128 7.53515625 6.7265625 C9.83371089 11.37590305 11.84853005 16.13135026 13.84765625 20.9140625 C14.42007443 22.26602105 14.99324028 23.61766327 15.56713867 24.96899414 C16.70322028 27.64724994 17.83364504 30.32780025 18.9609375 33.00976562 C20.3264709 36.24856257 21.73383943 39.46712125 23.16015625 42.6796875 C23.53615967 43.53667236 23.91216309 44.39365723 24.29956055 45.27661133 C24.97455567 46.81417885 25.65769865 48.34820815 26.35083008 49.87768555 C28.27210286 54.32592407 29.01685928 57.89169137 28.53515625 62.7265625 C26.7395322 65.47985271 25.48260703 67.25283711 22.53515625 68.7265625 C18.61870731 69.09603881 16.33942588 69.248593 12.9909668 67.07519531 C10.25270472 64.45643787 9.06657362 62.29733983 7.5546875 58.8359375 C7.03471191 57.66240723 6.51473633 56.48887695 5.97900391 55.27978516 C5.43444249 54.01237864 4.89067679 52.74462997 4.34765625 51.4765625 C3.78119768 50.17593762 3.21396914 48.87564783 2.64599609 47.57568359 C1.49153779 44.92550971 0.34666572 42.27146554 -0.79150391 39.61425781 C-2.35481912 35.96912162 -3.96038314 32.3435571 -5.5703125 28.71875 C-6.4951691 26.59708549 -7.41843581 24.47472698 -8.33984375 22.3515625 C-8.77449951 21.37928711 -9.20915527 20.40701172 -9.65698242 19.40527344 C-11.9627649 13.98024106 -13.09481778 10.4727843 -11.46484375 4.7265625 C-8.69402477 0.02821728 -5.00678051 0.20119983 0 0 Z " fill="#7CD742" transform="translate(107.46484375,12.2734375)"/>
<path d="M0 0 C1.23879913 0.47382111 1.23879913 0.47382111 2.50262451 0.95721436 C4.24142163 1.62391255 5.97930502 2.29299826 7.71630859 2.96435547 C10.33524803 3.97506385 12.95835816 4.97431096 15.58203125 5.97265625 C40.74840343 15.61234064 40.74840343 15.61234064 43.38769531 19.72753906 C44.4418438 22.65889921 44.54346947 24.63370024 44.109375 27.734375 C41.66003087 32.00097445 41.66003087 32.00097445 39.109375 33.734375 C31.93839879 35.25605933 25.27341591 32.35663813 18.72265625 29.75390625 C17.66201462 29.34403976 16.60137299 28.93417328 15.5085907 28.5118866 C13.27785024 27.64570831 11.0499993 26.77205524 8.82495117 25.89135742 C5.42926801 24.54979582 2.02340173 23.23720754 -1.38476562 21.92773438 C-3.55795705 21.0798284 -5.73050624 20.23027416 -7.90234375 19.37890625 C-8.91495773 18.98911087 -9.92757172 18.59931549 -10.97087097 18.19770813 C-16.4293649 16.01769025 -20.70610654 13.90374784 -24.890625 9.734375 C-25.92931696 6.62362573 -25.67175331 3.90483695 -24.890625 0.734375 C-17.77255247 -8.49988126 -9.1357862 -3.52809873 0 0 Z " fill="#14A0FD" transform="translate(36.890625,104.265625)"/>
<path d="M0 0 C2.16992188 1.5793457 2.16992188 1.5793457 4.46875 3.73828125 C5.77875977 4.96417969 5.77875977 4.96417969 7.11523438 6.21484375 C8.078666 7.14131636 9.04017749 8.06978887 10 9 C10.50700439 9.48992432 11.01400879 9.97984863 11.53637695 10.48461914 C14.82706897 13.67582394 18.08461686 16.8988368 21.32568359 20.14038086 C23.0203376 21.83281091 24.72289851 23.5170262 26.42578125 25.20117188 C27.51350792 26.28597015 28.6007654 27.37123913 29.6875 28.45703125 C30.19265137 28.9549971 30.69780273 29.45296295 31.21826172 29.96601868 C34.67181688 33.44227309 36.69844576 36.01835787 37.4375 40.875 C36.82488661 45.25080991 35.23346172 47.04172652 32 50 C28.37601042 51.10013969 26.24256925 51.57644267 22.76074219 49.96118164 C18.88375556 47.20704001 15.66760086 43.93270111 12.328125 40.55859375 C11.60510193 39.83511246 10.88207886 39.11163116 10.137146 38.3662262 C8.61525913 36.84132632 7.0957953 35.31400481 5.57861328 33.78442383 C3.24956725 31.43706384 0.9125606 29.097862 -1.42578125 26.75976562 C-2.90411969 25.2765138 -4.38200038 23.79280558 -5.859375 22.30859375 C-6.56036316 21.60649277 -7.26135132 20.90439178 -7.98358154 20.18101501 C-8.62805237 19.53016434 -9.27252319 18.87931366 -9.93652344 18.20874023 C-10.50546326 17.63598862 -11.07440308 17.063237 -11.6605835 16.47312927 C-13.79304016 14.12779134 -14.00672962 12.92866601 -14.3125 9.6875 C-13.95124058 5.42463889 -12.98007946 3.98007946 -10 1 C-6.59831952 -0.70084024 -3.62263726 -0.91752552 0 0 Z " fill="#7B60F1" transform="translate(83,68)"/>
<path d="M0 0 C3.42444499 0.89687845 4.91137319 2.8710357 7.1328125 5.55859375 C7.65405273 8.77001953 7.65405273 8.77001953 7.50390625 12.37890625 C7.48299423 13.03094025 7.46208221 13.68297424 7.4405365 14.35476685 C7.36577484 16.42501134 7.25259506 18.4905063 7.1328125 20.55859375 C7.06980957 21.87182617 7.00680664 23.18505859 6.94189453 24.53808594 C6.7294954 28.50646689 6.46987012 32.46905959 6.1953125 36.43359375 C6.10702053 37.78252587 6.01912911 39.13148428 5.93164062 40.48046875 C5.6847322 44.1749504 5.41789335 47.86687636 5.1328125 51.55859375 C5.06046387 52.49606445 4.98811523 53.43353516 4.91357422 54.39941406 C4.56645389 58.17577806 4.27334084 60.34780124 2.1328125 63.55859375 C-0.72794888 64.53727528 -2.25421519 64.77994486 -5.1171875 63.74609375 C-6.8671875 62.55859375 -6.8671875 62.55859375 -7.8671875 60.55859375 C-8.04008122 59.23025843 -8.16213417 57.89507766 -8.25610352 56.55883789 C-8.31609024 55.73360123 -8.37607697 54.90836456 -8.43788147 54.05812073 C-8.49834152 53.16237839 -8.55880157 52.26663605 -8.62109375 51.34375 C-8.68626694 50.41823837 -8.75144012 49.49272675 -8.81858826 48.53916931 C-8.95593752 46.5730514 -9.09113413 44.60678212 -9.22436523 42.64038086 C-9.4267631 39.66409743 -9.63764838 36.68850644 -9.84960938 33.71289062 C-9.98228718 31.79821279 -10.11446377 29.88350015 -10.24609375 27.96875 C-10.30857803 27.09122574 -10.37106232 26.21370148 -10.43544006 25.30958557 C-10.73828375 20.76113472 -10.94522249 16.21590254 -11.03100586 11.65795898 C-11.05740395 10.3370652 -11.05740395 10.3370652 -11.08433533 8.98948669 C-10.84651224 6.3271415 -10.32209076 4.79087355 -8.8671875 2.55859375 C-5.69899994 0.44646871 -3.73499498 0.22702911 0 0 Z " fill="#FD5E0E" transform="translate(169.8671875,30.44140625)"/>
<path d="M0 0 C0.67494507 0.04338501 1.34989014 0.08677002 2.04528809 0.13146973 C23.38303002 1.5229209 23.38303002 1.5229209 26.1875 3.75 C27.38640155 6.91852553 27.04045117 8.84923186 26.0625 12.0625 C23.06767209 14.05905194 22.23672838 14.342252 18.84155273 14.56494141 C17.99314316 14.6248526 17.14473358 14.68476379 16.27061462 14.74649048 C15.35502274 14.80178925 14.43943085 14.85708801 13.49609375 14.9140625 C12.07309715 15.00969986 12.07309715 15.00969986 10.62135315 15.10726929 C8.61006577 15.24074232 6.5984888 15.36991024 4.58666992 15.49511719 C1.53560457 15.68528087 -1.51438374 15.88828828 -4.56445312 16.09375 C-6.52338758 16.22211828 -8.48237076 16.34974544 -10.44140625 16.4765625 C-11.34282852 16.53590973 -12.24425079 16.59525696 -13.17298889 16.65640259 C-17.58065309 16.92784194 -21.98668925 17.13102095 -26.40209961 17.21630859 C-27.19998398 17.23277435 -27.99786835 17.24924011 -28.81993103 17.26620483 C-32.09604006 16.95105135 -33.77477452 15.4345215 -35.9375 13.0625 C-37.3274408 10.2826184 -37.12238204 8.1438674 -36.9375 5.0625 C-32.89514356 -6.13171783 -9.77737848 -0.62918896 0 0 Z " fill="#FD5E0D" transform="translate(68.9375,158.9375)"/>
<path d="M0 0 C1.9375 1.6875 1.9375 1.6875 3 4 C2.77962372 7.67293796 2.63033454 9.36966546 0 12 C-4.33643601 12.31537716 -6.32653229 12.44897847 -10 10 C-10.77902622 2.98876404 -10.77902622 2.98876404 -8.375 -0.0625 C-5.12721302 -1.34452118 -3.30703161 -1.05543562 0 0 Z " fill="#FED300" transform="translate(18,161)"/>
<path d="M0 0 C1.9375 1.6875 1.9375 1.6875 3 4 C2.77962372 7.67293796 2.63033454 9.36966546 0 12 C-4.33643601 12.31537716 -6.32653229 12.44897847 -10 10 C-10.77902622 2.98876404 -10.77902622 2.98876404 -8.375 -0.0625 C-5.12721302 -1.34452118 -3.30703161 -1.05543562 0 0 Z " fill="#FED300" transform="translate(172,7)"/>
</svg>
