<?xml version="1.0" encoding="UTF-8"?>
<svg version="1.1" xmlns="http://www.w3.org/2000/svg" width="3125" height="3125">
<path d="M0 0 C3.20137838 0.00565354 6.40275144 0.00846581 9.60413361 0.0110817 C41.66856986 0.04913889 73.55916417 0.55506613 105.52228546 3.31805801 C106.55808746 3.40527115 107.59388947 3.49248428 108.66107941 3.58234024 C205.9840071 11.78497279 302.35717154 29.7764107 615.83869171 152.19696426 C619.64479183 154.2948199 623.46451266 156.36358144 627.29962921 158.40790176 C642.64653213 166.60090651 657.62362285 175.33846783 672.52228546 184.31805801 C673.56400909 184.94422012 674.60573273 185.57038223 675.67902374 186.21551895 C688.1082042 193.69400976 700.42080876 201.31954298 712.52228546 209.31805801 C713.34970245 209.86462051 714.17711945 210.41118301 715.02960968 210.97430801 C732.79544402 222.72855396 750.32025552 234.75228946 767.52228546 247.31805801 C768.32666046 247.90554825 769.13103546 248.49303848 769.95978546 249.09833145 C779.91371486 256.37871731 789.80001682 263.73054095 799.52228546 271.31805801 C800.09285675 271.76246231 800.66342804 272.20686661 801.25128937 272.6647377 C809.09578459 278.77860935 816.84529172 284.99448984 824.52228546 291.31805801 C826.31386253 292.77650142 828.10553048 294.23483318 829.89728546 295.69305801 C835.59229248 300.35407794 841.21521236 305.09640091 846.81769562 309.8678627 C848.54347876 311.3360884 850.27302818 312.79979334 852.00275421 314.26337051 C859.03968447 320.23611288 865.89380154 326.36699941 872.64728546 332.65790176 C874.86757503 334.71227295 877.10445852 336.72142451 879.39728546 338.69305801 C888.36156382 346.45829277 897.05536952 354.6335823 905.29962921 363.15790176 C907.18962563 364.99475241 909.11762413 366.70435321 911.11603546 368.41962051 C916.34211081 372.96026923 921.2018975 377.85175833 926.08478546 382.75555801 C926.99164093 383.6585463 927.8984964 384.56153458 928.83283234 385.49188614 C933.36712366 390.03275366 937.74598897 394.63233654 941.92438507 399.5018959 C944.48632806 402.4137819 947.24973021 405.10863891 950.02228546 407.81805801 C954.06044761 411.81110423 957.97213414 415.83134623 961.65119171 420.16180801 C964.20876038 423.10915228 966.8671472 425.95870951 969.52228546 428.81805801 C973.93758534 433.5841533 978.29078944 438.38714116 982.52228546 443.31805801 C982.94445343 443.8085463 983.3666214 444.29903458 983.80158234 444.80438614 C986.87003872 448.36951996 989.93013635 451.94168864 992.98468781 455.51874161 C993.97607932 456.67888061 994.9685145 457.83812896 995.96222687 458.99628067 C1001.52657351 465.48183798 1006.93847521 472.05417952 1012.18219757 478.80194473 C1015.91559508 483.59044716 1019.76875833 488.27170286 1023.64728546 492.94305801 C1029.15560792 499.59281785 1034.4018219 506.36379521 1039.52228546 513.31805801 C1040.43997929 514.53929672 1041.35934821 515.75927791 1042.28009796 516.97821426 C1062.45073956 543.6854524 1081.35284127 571.21988627 1099.52228546 599.31805801 C1100.08367218 600.18318008 1100.6450589 601.04830215 1101.22345734 601.93964005 C1116.65262252 625.77057756 1130.86108064 650.4405428 1144.52228546 675.31805801 C1145.04999542 676.27051407 1145.57770538 677.22297012 1146.12140656 678.20428848 C1163.95981394 710.43535656 1180.24059469 743.53146352 1194.81281281 777.36102676 C1196.37748679 780.99199242 1197.97222299 784.60912627 1199.57306671 788.22430801 C1242.16452587 885.01592181 1270.83917271 988.36587277 1301.20978546 1215.19305801 C1301.30119308 1216.56772232 1301.30119308 1216.56772232 1301.39444733 1217.97015762 C1303.15842046 1244.87067201 1303.73070735 1271.7428483 1303.70978546 1298.69305801 C1303.70951859 1299.46766247 1303.70925171 1300.24226692 1303.70897675 1301.04034424 C1303.69757332 1327.50960569 1303.30001295 1353.8995524 1301.52228546 1380.31805801 C1301.45676483 1381.29615433 1301.3912442 1382.27425064 1301.3237381 1383.28198624 C1294.69355087 1481.04371782 1278.3150941 1578.16061484 1239.52228546 1705.31805801 C1239.25178375 1706.14676407 1238.98128204 1706.97547012 1238.70258331 1707.82928848 C1222.43761805 1757.5251878 1203.02640275 1806.11483338 1180.52228546 1853.31805801 C1179.96057648 1854.49642227 1179.39886749 1855.67478653 1178.82013702 1856.8888588 C1174.76258731 1865.38569107 1170.65591152 1873.85798736 1166.52228546 1882.31805801 C1166.06080109 1883.26439102 1165.59931671 1884.21072403 1165.12384796 1885.1857338 C1159.12645243 1897.450862 1152.74560811 1909.47925203 1146.12726593 1921.4201088 C1144.49311813 1924.37072249 1142.86910415 1927.32678219 1141.24494171 1930.28290176 C1133.04636467 1945.13230481 1124.3527021 1959.63464173 1115.48957062 1974.09149551 C1113.15583756 1977.91907259 1110.86171159 1981.76903699 1108.57355499 1985.62396622 C1103.56022808 1994.06473818 1098.33177623 2002.30170271 1092.80841827 2010.41669083 C1091.4572894 2012.41414558 1090.1245117 2014.42286567 1088.79572296 2016.43524551 C1076.23696855 2035.44500342 1063.16288742 2054.06969319 1049.52228546 2072.31805801 C1048.99119171 2073.03074844 1048.46009796 2073.74343887 1047.91291046 2074.47772598 C1044.4656737 2079.1035508 1041.00234632 2083.71687872 1037.52228546 2088.31805801 C1037.10027863 2088.87654434 1036.67827179 2089.43503067 1036.24347687 2090.01044083 C1030.18177051 2098.0142939 1023.90555979 2105.82548342 1017.55353546 2113.59930801 C1015.14378747 2116.54917193 1012.76257965 2119.51985879 1010.39728546 2122.50555801 C1005.57064012 2128.55401107 1000.54449888 2134.43228909 995.52228546 2140.31805801 C995.02116241 2140.90699844 994.52003937 2141.49593887 994.00373077 2142.10272598 C988.26232211 2148.84970241 982.4769383 2155.54246284 976.52228546 2162.10321426 C974.72625017 2164.09218303 972.96275243 2166.10368996 971.20978546 2168.13055801 C967.20714423 2172.72074291 963.07129712 2177.18665018 958.92584991 2181.64740372 C956.83235836 2183.9017753 954.74676782 2186.16283331 952.67047882 2188.43304825 C942.36776967 2199.64432499 931.60103584 2210.39318346 920.82501984 2221.14569473 C918.15922958 2223.80573688 915.49802764 2226.47031748 912.83808327 2229.13620377 C910.75679829 2231.22112317 908.67311205 2233.30362971 906.58871841 2235.38544083 C905.60654321 2236.3669574 904.62508662 2237.3491937 903.64442062 2238.33221817 C898.62551772 2243.36056498 893.56731944 2248.27078769 888.17523956 2252.89868546 C886.27155578 2254.53335669 884.44030687 2256.23161248 882.62775421 2257.96649551 C881.98805695 2258.57461075 881.34835968 2259.18272598 880.68927765 2259.80926895 C880.03604523 2260.43091934 879.38281281 2261.05256973 878.70978546 2261.69305801 C873.3550812 2266.75510128 867.92721686 2271.55544798 862.16291046 2276.14618301 C859.18132764 2278.59849078 856.34671752 2281.18895883 853.52228546 2283.81805801 C848.94309147 2288.07347061 844.22941379 2292.09129423 839.35822296 2296.01337051 C836.26640357 2298.52600611 833.23804312 2301.10467932 830.20978546 2303.69305801 C824.0254782 2308.95817573 817.66994956 2313.98179825 811.25763702 2318.96503067 C809.58760143 2320.26713214 807.92466946 2321.57766196 806.26447296 2322.89227676 C791.04252222 2334.94053017 775.64502849 2346.73575568 759.69416046 2357.8053627 C757.41077033 2359.3957275 755.1376257 2360.99995168 752.86603546 2362.60712051 C699.90837386 2400.01532985 644.20267341 2432.77697724 586.52228546 2462.31805801 C585.53325226 2462.82691544 584.54421906 2463.33577286 583.52521515 2463.8600502 C566.46081866 2472.62035121 549.07092828 2480.61016859 531.55347443 2488.41315079 C529.60181441 2489.28262738 527.65113574 2490.15427624 525.70050812 2491.02606583 C505.24218479 2500.15146401 484.4870395 2508.43221752 463.52228546 2516.31805801 C462.79694611 2516.59091629 462.07160675 2516.86377457 461.32428741 2517.14490128 C370.0395741 2551.40109157 275.35909457 2575.14334679 110.77228546 2595.63055801 C109.40247025 2595.74373367 109.40247025 2595.74373367 108.00498199 2595.85919571 C68.83211288 2599.03394262 29.63974204 2599.61556589 -9.64102538 2599.5625904 C-15.80797638 2599.55632717 -21.97491701 2599.55975684 -28.14186922 2599.56275753 C-40.87073048 2599.56862261 -53.59957316 2599.5652252 -66.32843208 2599.55646896 C-79.19428533 2599.54765793 -92.06012898 2599.54333007 -104.92598534 2599.54427338 C-105.74395858 2599.54433076 -106.56193182 2599.54438815 -107.40469213 2599.54444727 C-111.57683508 2599.54476009 -115.74897802 2599.54514398 -119.92112097 2599.54555294 C-149.98314359 2599.54835502 -180.04515771 2599.54155141 -210.10717773 2599.52951813 C-239.84612572 2599.51764279 -269.58507005 2599.50996188 -299.32402039 2599.5078125 C-300.25017469 2599.50774368 -301.176329 2599.50767485 -302.13054858 2599.50760394 C-310.59047761 2599.50697748 -319.05040664 2599.5064021 -327.51033568 2599.50588799 C-348.5336913 2599.50460978 -369.55704684 2599.50269149 -390.58040237 2599.5003376 C-391.53738951 2599.50023097 -392.49437664 2599.50012433 -393.48036339 2599.50001446 C-439.94676696 2599.49478095 -486.41316814 2599.48216977 -532.87957001 2599.46893692 C-548.98920947 2599.46435329 -565.09884895 2599.45980242 -581.20848846 2599.45538712 C-582.20771277 2599.45511322 -583.20693708 2599.45483932 -584.23644092 2599.45455712 C-630.75383362 2599.44185114 -677.27122675 2599.43441204 -723.78862074 2599.42831753 C-726.81137896 2599.4279214 -729.83413719 2599.42752301 -732.85689542 2599.42712417 C-752.89014464 2599.42448443 -772.92339387 2599.42193516 -792.95664311 2599.41944645 C-832.81228108 2599.41449442 -872.66791897 2599.4090111 -912.52355682 2599.40316235 C-914.42126173 2599.40288387 -916.31896664 2599.40260576 -918.21667155 2599.40232803 C-1003.56442925 2599.38983399 -1088.9121852 2599.37116188 -1174.2599411 2599.3497963 C-1175.05851026 2599.34959642 -1175.85707941 2599.34939655 -1176.67984763 2599.34919063 C-1216.61247003 2599.33919127 -1256.54509234 2599.32883848 -1296.47771454 2599.31805801 C-1296.48321368 2559.49676898 -1296.48848547 2519.67547991 -1296.49358368 2479.85419083 C-1296.49368348 2479.07484177 -1296.49378327 2478.29549272 -1296.4938861 2477.49252703 C-1296.50458082 2393.92604972 -1296.51380194 2310.3595724 -1296.52005768 2226.79309464 C-1296.52019713 2224.9352442 -1296.52033658 2223.07739376 -1296.52047603 2221.21954333 C-1296.5233992 2182.21620552 -1296.52611586 2143.2128677 -1296.52859422 2104.20952987 C-1296.52983954 2084.61463038 -1296.53112451 2065.01973089 -1296.53244698 2045.42483141 C-1296.53264623 2042.46915605 -1296.53284435 2039.5134807 -1296.53304242 2036.55780534 C-1296.53609963 1991.08586056 -1296.5400032 1945.61391604 -1296.54637909 1900.14197159 C-1296.54658444 1898.67728231 -1296.54658444 1898.67728231 -1296.54679393 1897.18300335 C-1296.54900609 1881.44124337 -1296.55128978 1865.6994834 -1296.55358298 1849.95772343 C-1296.56019318 1804.57415639 -1296.56626774 1759.19058956 -1296.56885433 1713.80702209 C-1296.56890787 1712.87222049 -1296.5689614 1711.93741888 -1296.56901656 1710.97428995 C-1296.57018277 1690.44491084 -1296.57107742 1669.91553172 -1296.57171552 1649.38615258 C-1296.57197711 1641.12373627 -1296.57227774 1632.86131996 -1296.57259178 1624.59890366 C-1296.57262521 1623.69466174 -1296.57265864 1622.79041982 -1296.57269308 1621.85877663 C-1296.57378651 1592.80424523 -1296.57804727 1563.74971538 -1296.58399675 1534.6951846 C-1296.58998346 1505.38713616 -1296.59280777 1476.0790892 -1296.59133853 1446.77104013 C-1296.59113549 1442.70545525 -1296.59096809 1438.63987038 -1296.59082222 1434.57428551 C-1296.59079234 1433.77743226 -1296.59076246 1432.98057902 -1296.59073167 1432.1595787 C-1296.59035351 1419.62706489 -1296.5933135 1407.09455427 -1296.5977244 1394.56204133 C-1296.60200923 1382.18731511 -1296.60262522 1369.81259295 -1296.59954635 1357.43786633 C-1296.59800073 1350.83916925 -1296.59804302 1344.2404804 -1296.60259772 1337.64178386 C-1296.65331535 1259.53878061 -1296.65331535 1259.53878061 -1294.22771454 1221.75555801 C-1294.16524536 1220.74918289 -1294.10277618 1219.74280777 -1294.038414 1218.70593643 C-1287.6118461 1116.0966195 -1269.48926358 1014.26492965 -1187.39720917 777.39276505 C-1186.48653768 775.33796616 -1185.58022856 773.28128611 -1184.67449188 771.22430801 C-1176.21602108 752.05958079 -1167.08285669 733.2473546 -1157.72771454 714.50555801 C-1157.20800079 713.46245468 -1156.68828705 712.41935135 -1156.1528244 711.34463882 C-1146.71130002 692.42668781 -1136.78433573 673.79054458 -1126.16521454 655.50555801 C-1125.2323764 653.89535782 -1125.2323764 653.89535782 -1124.28069305 652.25262833 C-1102.96459667 615.56998539 -1080.1123572 579.86379506 -1055.47771454 545.31805801 C-1054.95193817 544.57765274 -1054.4261618 543.83724747 -1053.88445282 543.07440567 C-1038.05188342 520.80575341 -1021.23296578 499.27794273 -1003.94988251 478.12225723 C-1002.65499943 476.53532756 -1001.36480976 474.94457065 -1000.07537079 473.35321426 C-995.01201713 467.11787278 -989.8194089 461.00283688 -984.57537079 454.91962051 C-982.55027335 452.57022825 -980.53746724 450.21130661 -978.53630829 447.84149551 C-972.68915421 440.93308298 -966.6835583 434.21572849 -960.46062469 427.6425209 C-957.64857576 424.66863636 -954.89033798 421.66573071 -952.21135712 418.5709877 C-939.89820324 404.46711463 -926.58655287 391.26449898 -913.33855438 378.04852676 C-910.93064038 375.64638294 -908.52734839 373.23967206 -906.12528229 370.83168221 C-903.78686522 368.48876018 -901.44462252 366.14967818 -899.10271454 363.81024551 C-898.25362518 362.95913193 -897.40453583 362.10801834 -896.52971649 361.23111343 C-892.2054464 356.92369968 -887.81141939 352.76893404 -883.18401337 348.78854752 C-881.15537304 347.04026389 -879.19933801 345.22603289 -877.25896454 343.38055801 C-876.55384735 342.71282364 -875.84873016 342.04508926 -875.12224579 341.35712051 C-874.41455048 340.68422989 -873.70685516 340.01133926 -872.97771454 339.31805801 C-867.58290065 334.18856284 -862.11924725 329.17547878 -856.47771454 324.31805801 C-855.62935028 323.58643448 -855.62935028 323.58643448 -854.76384735 322.84003067 C-853.12924225 321.43399736 -851.4915883 320.03161261 -849.85271454 318.63055801 C-848.63521728 317.58894902 -847.41777086 316.5472806 -846.20037079 315.50555801 C-845.58564911 314.97962051 -844.97092743 314.45368301 -844.33757782 313.91180801 C-842.50544546 312.34182114 -840.67660977 310.7680837 -838.84880829 309.19305801 C-831.8072925 303.12942358 -824.69521777 297.17214914 -817.47771454 291.31805801 C-816.251964 290.31084168 -815.02673762 289.30298725 -813.80193329 288.29462051 C-805.85837531 281.77162225 -797.78965816 275.47095838 -789.53630829 269.34540176 C-786.07010984 266.77067906 -782.64224002 264.14940446 -779.22234344 261.51361465 C-769.78536208 254.24294334 -760.18766736 247.21921252 -750.47771454 240.31805801 C-749.70089325 239.76537247 -748.92407196 239.21268692 -748.12371063 238.64325333 C-702.84913635 206.50692843 -655.51049745 177.35712939 -606.47771454 151.31805801 C-605.56554169 150.83304825 -604.65336884 150.34803848 -603.71355438 149.84833145 C-596.99486736 146.28606649 -590.24409712 142.78875887 -583.47771454 139.31805801 C-582.30805145 138.71622696 -581.13838837 138.1143959 -579.93328094 137.49432755 C-559.45251653 126.9769731 -538.64367882 117.37800608 -517.52727509 108.21002579 C-515.59803894 107.37042314 -513.67111544 106.5258077 -511.74529266 105.67840958 C-422.10596596 66.25810333 -327.52953245 38.35505029 -172.47771454 11.31805801 C-171.61309601 11.19902115 -170.74847748 11.07998428 -169.85765839 10.95734024 C-149.07486899 8.11329163 -128.25316834 5.90658757 -107.35271454 4.13055801 C-105.98315613 4.01220093 -105.98315613 4.01220093 -104.58592987 3.89145279 C-97.55465721 3.29140443 -90.51932406 2.78064332 -83.47771454 2.31805801 C-82.49213688 2.25317499 -82.49213688 2.25317499 -81.48664856 2.1869812 C-54.32319321 0.41743092 -27.21651141 -0.04887305 0 0 Z " fill="#7A49D7" transform="translate(1559.4777145385742,263.681941986084)"/>
<path d="M0 0 C534.71065771 0 534.71065771 0 566.5 5.75 C567.97775906 6.00730014 569.45554306 6.26445713 570.93334961 6.52148438 C590.98198163 10.0753437 610.72678924 14.88692113 630.03955078 21.35644531 C632.98616261 22.3237266 635.96268665 23.18652434 638.9375 24.0625 C645.15273924 25.97607804 651.03762787 28.41630541 657 31 C658.52532793 31.63453096 660.05143246 32.26719687 661.578125 32.8984375 C713.12128678 54.35567959 763.6944767 87.06036528 798 132 C799.02391479 133.30793777 800.04872621 134.6151739 801.07421875 135.921875 C820.01866365 160.20235245 837.17798103 187.28828101 846.8671875 216.69921875 C847.78152062 219.36339628 848.79050964 221.90262588 849.87890625 224.49609375 C852.49206607 230.96645719 854.25431423 237.64395009 856.0625 244.375 C856.40087891 245.6125 856.73925781 246.85 857.08789062 248.125 C858.07325418 251.74625873 859.0400663 255.37192603 860 259 C860.28262695 260.04953857 860.56525391 261.09907715 860.85644531 262.18041992 C862.62564407 268.93987725 863.7841024 275.62987259 864.625 282.5625 C864.86462697 284.48079034 865.10670213 286.3987769 865.3515625 288.31640625 C865.45291504 289.14599854 865.55426758 289.97559082 865.65869141 290.83032227 C865.96614336 293.17336888 865.96614336 293.17336888 867 296 C867.20491503 298.79481332 867.37237618 301.57672953 867.5 304.375 C867.56948007 305.88297477 867.6423138 307.39079932 867.71875 308.8984375 C867.74904297 309.56536621 867.77933594 310.23229492 867.81054688 310.91943359 C867.95206315 313.02351353 867.95206315 313.02351353 868.50708008 315.12231445 C869.2492465 319.45511071 869.16235151 323.75630432 869.16796875 328.14453125 C869.17432091 329.63550575 869.17432091 329.63550575 869.18080139 331.15660095 C869.1906916 334.37527685 869.19072358 337.59381159 869.1875 340.8125 C869.18659363 342.45043518 869.18659363 342.45043518 869.18566895 344.12145996 C869.15168231 366.60652332 868.05390334 388.02967825 863 410 C862.70754395 411.30928467 862.70754395 411.30928467 862.40917969 412.64501953 C858.84116317 428.59733895 854.6579855 444.02824726 848 459 C847.35658529 460.48299243 846.71337238 461.96607242 846.0703125 463.44921875 C834.95741946 488.85192816 821.5533763 512.4584966 804 534 C803.18402344 535.01964844 802.36804687 536.03929687 801.52734375 537.08984375 C794.96782983 545.10931218 787.73662587 552.47303126 780.4375 559.8125 C779.95471588 560.30055115 779.47193176 560.78860229 778.97451782 561.29144287 C772.33278652 567.9891268 765.41772444 574.16811892 758 580 C757.33186279 580.53278564 756.66372559 581.06557129 755.9753418 581.61450195 C703.64212039 623 703.64212039 623 681 623 C681 623.66 681 624.32 681 625 C681.66386719 625.11214844 682.32773438 625.22429688 683.01171875 625.33984375 C694.95906351 627.97919181 706.13444798 633.2074771 716.89160156 638.89501953 C719.09030864 640.04732942 721.30467339 641.16418989 723.5234375 642.27734375 C749.55512656 655.46662448 773.14404481 672.73702031 794.47070312 692.58837891 C796.00458024 694.0042278 797.55388083 695.40092833 799.109375 696.79296875 C805.49355181 702.52158238 811.40636888 708.48700045 817 715 C817.82757812 715.93972656 818.65515625 716.87945313 819.5078125 717.84765625 C848.92287272 751.55490294 870.80458815 791.34330682 884 834 C884.31598145 834.99290039 884.63196289 835.98580078 884.95751953 837.00878906 C889.40633368 851.01423063 892.53831927 864.88496474 894.62988281 879.4296875 C894.95172752 881.66476738 895.2935605 883.89498428 895.6484375 886.125 C902.87809695 933.06539761 899.62541811 987.55334981 883.85839844 1032.53515625 C882.86157643 1035.39747566 881.91997505 1038.27589629 880.9765625 1041.15625 C867.69809959 1081.16935627 848.36392878 1119.01414545 822 1152 C820.81277344 1153.49080078 820.81277344 1153.49080078 819.6015625 1155.01171875 C817.42854113 1157.6985773 815.21972478 1160.35163871 813 1163 C812.16984375 1164.01578125 811.3396875 1165.0315625 810.484375 1166.078125 C799.08706577 1179.86006438 786.42603559 1193.24504317 772.2734375 1204.21875 C770.04543074 1205.96440478 768.00426821 1207.81784888 765.9375 1209.75 C758.81451595 1216.14666904 750.83440808 1221.52186883 743 1227 C742.02039307 1227.68545898 742.02039307 1227.68545898 741.02099609 1228.38476562 C726.42372852 1238.52400075 711.00445477 1247.35532885 694.98583984 1255.04394531 C692.94903571 1256.02453604 690.92185428 1257.02341269 688.89453125 1258.0234375 C679.24046403 1262.73177817 669.40804327 1266.56756502 659.29003906 1270.15551758 C656.87256632 1271.04699287 654.49580076 1272.0152633 652.11328125 1272.99609375 C636.69354678 1279.20432771 620.19169909 1282.56811731 603.9375 1285.8125 C603.22233215 1285.95934235 602.50716431 1286.10618469 601.77032471 1286.25747681 C405.21057058 1326.28510298 200.59359726 1290.39564812 0 1290 C0 864.3 0 438.6 0 0 Z " fill="#FEFEFE" transform="translate(1105,985)"/>
<path d="M0 0 C41.229375 -0.0825 82.45875 -0.165 124.9375 -0.25 C144.40866821 -0.30462402 144.40866821 -0.30462402 164.27319336 -0.36035156 C180.21984863 -0.37841797 180.21984863 -0.37841797 187.70362854 -0.3817749 C192.89008942 -0.38547623 198.07642305 -0.40002483 203.26283264 -0.42230225 C209.90792143 -0.45080217 216.55273078 -0.45791129 223.19789231 -0.4522891 C225.61822282 -0.45346223 228.03856286 -0.46121898 230.45884311 -0.47686052 C277.61131486 -0.76708198 321.94535704 13.47370834 356 47 C356.88042969 47.88171875 357.76085938 48.7634375 358.66796875 49.671875 C359.96680572 50.96853636 361.27803516 52.25408955 362.6328125 53.4921875 C381.86426034 71.31400042 394.473179 98.44452165 401.4375 123.25 C401.67243164 124.0752417 401.90736328 124.9004834 402.14941406 125.75073242 C405.74075409 139.45235968 406.33489941 153.49411166 406.26074219 167.58398438 C406.25000466 169.99895304 406.26072725 172.41317829 406.2734375 174.828125 C406.31242802 216.36251204 391.24886806 255.43880986 363 286 C362.50951172 286.53431641 362.01902344 287.06863281 361.51367188 287.61914062 C334.0140361 317.22602819 294.41130672 335.93461239 254.02083755 338.16447234 C246.3562757 338.42235959 238.69187196 338.37690926 231.02416992 338.34057617 C228.44844991 338.3396549 225.87272914 338.3400615 223.29700947 338.34167194 C217.1522134 338.34325004 211.00755166 338.32956513 204.86278986 338.31016796 C197.73685193 338.28835794 190.61095897 338.28617235 183.48498535 338.28381348 C164.71913599 338.2681356 145.9533159 338.2262518 127.1875 338.1875 C85.215625 338.125625 43.24375 338.06375 0 338 C0 226.46 0 114.92 0 0 Z " fill="#8F6DF0" transform="translate(1349,1724)"/>
<path d="M0 0 C53.398125 -0.061875 53.398125 -0.061875 107.875 -0.125 C119.09226074 -0.14320801 130.30952148 -0.16141602 141.86669922 -0.18017578 C155.62329102 -0.18920898 155.62329102 -0.18920898 162.07473755 -0.19088745 C166.55563358 -0.19274169 171.03648164 -0.20020046 175.5173645 -0.21115112 C181.2519806 -0.22497778 186.986528 -0.2289624 192.72115922 -0.22614455 C194.81390527 -0.22673286 196.90665399 -0.23063399 198.9993856 -0.23843026 C214.88203658 -0.29479975 230.76337728 0.11653801 246.1875 4.3125 C247.43527222 4.64060669 247.43527222 4.64060669 248.70825195 4.9753418 C251.14564131 5.62829338 253.57393654 6.30625258 256 7 C256.68191406 7.19464844 257.36382813 7.38929687 258.06640625 7.58984375 C279.11979521 13.75699809 298.55168172 24.51527941 315 39 C315.86238281 39.7528125 316.72476562 40.505625 317.61328125 41.28125 C320.1057486 43.49005263 322.55843501 45.7351813 325 48 C325.96292969 48.86431641 325.96292969 48.86431641 326.9453125 49.74609375 C356.22835743 77.25255227 372.8157946 119.81426223 374.24609375 159.45703125 C374.86007504 189.95420108 367.60797806 219.22861396 353 246 C352.43539063 247.05574219 351.87078125 248.11148437 351.2890625 249.19921875 C344.74448599 260.95180332 336.22207749 271.2532181 327 281 C326.23171875 281.82113281 325.4634375 282.64226562 324.671875 283.48828125 C306.72614517 302.09973976 283.87487946 314.64530469 259.6875 323.1875 C258.38498291 323.66932739 258.38498291 323.66932739 257.05615234 324.16088867 C230.24551951 333.22347284 201.44773087 331.54072954 173.58399963 331.40512085 C168.06648897 331.38205037 162.54905371 331.38125281 157.03149414 331.37841797 C140.97928589 331.35757058 124.92713845 331.30172572 108.875 331.25 C72.94625 331.1675 37.0175 331.085 0 331 C0 221.77 0 112.54 0 0 Z " fill="#9373F5" transform="translate(1349,1194)"/>
</svg>
