<svg id="Layer_1" data-name="Layer 1" xmlns="http://www.w3.org/2000/svg" viewBox="0 0 192 192"><defs><style>.cls-1{fill:#9b80ff;}.cls-2{fill:#ff791f;}.cls-3{fill:#20ce66;}</style></defs><title>Conectividade - 3</title><path class="cls-1" d="M160.66,70.7a91.51,91.51,0,0,0-47.92-25.36,4,4,0,0,0-1.48,7.87A83.46,83.46,0,0,1,155,76.35a4,4,0,0,0,5.66-5.65Z"/><path class="cls-1" d="M83.94,48.43a4,4,0,0,0-4.65-3.24A91.5,91.5,0,0,0,31.37,69.88,4,4,0,1,0,37,75.61,83.55,83.55,0,0,1,80.71,53.07,4,4,0,0,0,83.94,48.43Z"/><path class="cls-1" d="M95.61,68.75a66.67,66.67,0,0,0-46.8,19,4,4,0,0,0,5.59,5.73,59,59,0,0,1,82.93.5A4,4,0,0,0,143,88.37,66.57,66.57,0,0,0,95.61,68.75Z"/><path class="cls-1" d="M95.61,93.75a41.73,41.73,0,0,0-29.7,12.3,4,4,0,0,0,5.66,5.66,34,34,0,0,1,47.1-.95,4,4,0,1,0,5.42-5.87A41.86,41.86,0,0,0,95.61,93.75Z"/><circle class="cls-2" cx="95.61" cy="135.75" r="13"/><circle class="cls-3" cx="96" cy="47.25" r="4"/></svg>