<svg id="Layer_1" data-name="Layer 1" xmlns="http://www.w3.org/2000/svg" viewBox="0 0 192 192"><defs><style>.cls-1{fill:#fff;}</style></defs><title>Crédito - 11</title><path class="cls-1" d="M185.18,103.34,110.29,23l-.09-.1a16,16,0,0,0-22.63,0L87.5,23,11.36,103.15a4,4,0,1,0,5.8,5.51l13.1-13.79v59.3c0,8.61,7.4,15.62,16.5,15.62H82.17a4,4,0,0,0,0-8H46.76c-4.69,0-8.5-3.42-8.5-7.62V87.92A3.89,3.89,0,0,0,38,86.68L93.26,28.56a8,8,0,0,1,11.24,0L158.26,86.2v67.59c0,7.28-2.32,8-8,8h-36a4,4,0,0,0,0,8h36c4.37,0,16,0,16-16v-59l13.07,14a4,4,0,0,0,5.85-5.46Z"/><circle class="cls-1" cx="98.26" cy="165.79" r="4"/><path class="cls-1" d="M74.79,114.06a4,4,0,0,0,1.46,5.46,44.07,44.07,0,0,0,44,0,4,4,0,0,0-4-6.92,36.08,36.08,0,0,1-36,0A4,4,0,0,0,74.79,114.06Z"/><circle class="cls-1" cx="86.26" cy="98.17" r="4"/><circle class="cls-1" cx="110.26" cy="98.17" r="4"/></svg>