<svg id="Layer_1" data-name="Layer 1" xmlns="http://www.w3.org/2000/svg" viewBox="0 0 192 192"><defs><style>.cls-1{fill:#fff;}.cls-2{fill:#1ddfff;}</style></defs><title>Crédito - 7</title><path class="cls-1" d="M182.92,105.31,108,25a.47.47,0,0,1-.1-.1,16,16,0,0,0-22.63,0l-.07.08L9.1,105.13a4,4,0,0,0,5.8,5.51L28,96.85v59.29c0,8.62,7.4,15.63,16.5,15.63H79.91a4,4,0,0,0,0-8H44.5c-4.69,0-8.5-3.43-8.5-7.63V89.89a4,4,0,0,0-.22-1.24L91,30.54a8,8,0,0,1,11.24,0L156,88.17v67.6c0,7.27-2.32,8-8,8H112a4,4,0,1,0,0,8h36c4.38,0,16,0,16-16v-59l13.08,14a4,4,0,0,0,5.84-5.46Z"/><circle class="cls-2" cx="96" cy="167.77" r="4"/><path class="cls-1" d="M72.53,116A4,4,0,0,0,74,121.49a44,44,0,0,0,44,0,4,4,0,1,0-4-6.93,36,36,0,0,1-36,0A4,4,0,0,0,72.53,116Z"/><circle class="cls-1" cx="84" cy="100.14" r="4"/><circle class="cls-1" cx="108" cy="100.14" r="4"/></svg>