<svg id="Layer_1" data-name="Layer 1" xmlns="http://www.w3.org/2000/svg" viewBox="0 0 192 192"><defs><style>.cls-1{fill:#ff791f;}.cls-2{fill:#20ce66;}.cls-3{fill:#9b80ff;}</style></defs><title>Crédito - 3</title><circle class="cls-1" cx="88" cy="88" r="4"/><circle class="cls-2" cx="38" cy="68" r="4"/><path class="cls-3" d="M164,84H142.1L115.69,45.24A12,12,0,0,0,105.77,40H58.23a12,12,0,0,0-9.92,5.24l-3.07,4.51a4,4,0,1,0,6.61,4.5l3.07-4.5A4,4,0,0,1,58.23,48h47.54a4,4,0,0,1,3.31,1.75l27.6,40.5A4,4,0,0,0,140,92h24a12,12,0,0,1,12,12v20h-9.67a20,20,0,0,0-36.66,0H62.33a20,20,0,0,0-36.66,0H16V92h8a4,4,0,0,0,2.93-1.27l3.72-4a4,4,0,1,0-5.85-5.46L22.27,84H12a4,4,0,0,0-4,4v40a4,4,0,0,0,4,4H24a20,20,0,0,0,40,0h64a20,20,0,0,0,40,0h12a4,4,0,0,0,4-4V104A20,20,0,0,0,164,84ZM44,144a12,12,0,1,1,12-12A12,12,0,0,1,44,144Zm104,0a12,12,0,1,1,12-12A12,12,0,0,1,148,144Z"/><path class="cls-3" d="M112,92a4,4,0,0,0,0-8h-8a4,4,0,0,0,0,8Z"/></svg>