<svg id="Layer_1" data-name="Layer 1" xmlns="http://www.w3.org/2000/svg" viewBox="0 0 192 192"><defs><style>.cls-1{fill:#fff;}.cls-2{fill:#ffd400;}.cls-3{fill:#ff791f;}</style></defs><title>Facilidade - 1</title><path class="cls-1" d="M94.79,183.5h-68a4,4,0,1,1,0-8h68a80,80,0,1,0-80-80v68a4,4,0,0,1-8,0v-68a88,88,0,1,1,88,88Z"/><path class="cls-2" d="M96.79,119.82h-8a4,4,0,0,1,0-8h4v-56a4,4,0,0,1,8,0v60A4,4,0,0,1,96.79,119.82Z"/><path class="cls-1" d="M76.79,83.82a4,4,0,0,1-4-4v-16a4,4,0,0,1,8,0v16A4,4,0,0,1,76.79,83.82Z"/><path class="cls-1" d="M116.79,83.82a4,4,0,0,1-4-4v-16a4,4,0,0,1,8,0v16A4,4,0,0,1,116.79,83.82Z"/><path class="cls-1" d="M92.79,139.17a44,44,0,0,1-22-5.89,4,4,0,0,1,4-6.92,36.08,36.08,0,0,0,36,0,4,4,0,1,1,4,6.92A43.93,43.93,0,0,1,92.79,139.17Z"/><circle class="cls-3" cx="10.79" cy="179.5" r="4"/></svg>