<svg id="Layer_1" data-name="Layer 1" xmlns="http://www.w3.org/2000/svg" viewBox="0 0 192 192"><defs><style>.cls-1{fill:#424242;}.cls-2{fill:#ff791f;}</style></defs><title>Planejamento - 4</title><path class="cls-1" d="M164,75.64c0-.13,0-.26,0-.39V40a12,12,0,0,0-12-12H116.4a70.86,70.86,0,0,0-40.8,0H40A12,12,0,0,0,28,40V75.25a2.3,2.3,0,0,0,0,.26,71,71,0,0,0,101.88,82.88,4,4,0,1,0-3.82-7,63,63,0,1,1,25.47-25.64,4,4,0,0,0,7.05,3.78A71,71,0,0,0,164,75.64ZM36,58.11V40a4,4,0,0,1,4-4H58.11A71.55,71.55,0,0,0,36,58.11ZM133.89,36h18.16a4,4,0,0,1,4,4V58.19A71.54,71.54,0,0,0,133.89,36Z"/><circle class="cls-1" cx="82" cy="72" r="4"/><circle class="cls-1" cx="110" cy="72" r="4"/><path class="cls-1" d="M96,84c-15.7,0-28,8.79-28,20s12.3,20,28,20,28-8.79,28-20S111.7,84,96,84Zm0,32c-10.84,0-20-5.5-20-12s9.16-12,20-12,20,5.5,20,12S106.84,116,96,116Z"/><path class="cls-1" d="M114,127.18a36,36,0,0,1-36,0,4,4,0,0,0-4,6.93,44.07,44.07,0,0,0,44,0,4,4,0,1,0-4-6.93Z"/><path class="cls-2" d="M144,140a4,4,0,1,0,4,4A4,4,0,0,0,144,140Z"/></svg>