<svg id="Layer_1" data-name="Layer 1" xmlns="http://www.w3.org/2000/svg" viewBox="0 0 192 192"><defs><style>.cls-1{fill:#fff;}</style></defs><title>Recursos - 5</title><path class="cls-1" d="M96.09,92.13h-.18a24,24,0,0,1-24-23.92l.18-8.33a24,24,0,1,1,48,0,4,4,0,0,0,8,0A32.05,32.05,0,0,0,99.91,28.11V27a4,4,0,0,0-8,0v1.16A32,32,0,0,0,64.09,59.79l-.18,8.34a32,32,0,0,0,32,32h.18a23.88,23.88,0,0,1,24,23.66l-.18,8.34a24,24,0,0,1-48,0,4,4,0,0,0-8,0A32.05,32.05,0,0,0,92,163.88V165a4,4,0,0,0,8,0v-1.14a32,32,0,0,0,27.91-31.65l.18-8.33A31.91,31.91,0,0,0,96.09,92.13Z"/><path class="cls-1" d="M96,16a4,4,0,1,0-4-4A4,4,0,0,0,96,16Z"/><circle class="cls-1" cx="96" cy="180" r="4"/><path class="cls-1" d="M100,144V112a4,4,0,0,0-8,0v32a4,4,0,0,0,8,0Z"/><path class="cls-1" d="M92,48V80.05a4,4,0,1,0,8,0V48a4,4,0,0,0-8,0Z"/></svg>