<svg id="Layer_1" data-name="Layer 1" xmlns="http://www.w3.org/2000/svg" viewBox="0 0 192 192"><defs><style>.cls-1{fill:#424242;}.cls-2{fill:#1ddfff;}.cls-3{fill:#ffd400;}.cls-4{fill:#20ce66;}</style></defs><title>Responsividade - 4</title><path class="cls-1" d="M160.14,56H103.86a4,4,0,0,0,0,8h56.28a4,4,0,0,1,4,4v56a4,4,0,0,1-4,4h-100a4,4,0,0,1-4-4V68a4,4,0,0,1,4-4H71.86a4,4,0,1,0,0-8H60.14a12,12,0,0,0-12,12v56a12,12,0,0,0,12,12h100a12,12,0,0,0,12-12V68A12,12,0,0,0,160.14,56Z"/><path class="cls-1" d="M123.86,160a4,4,0,0,0-4,4v4a4,4,0,0,1-4,4h-84a4,4,0,0,1-4-4V24a4,4,0,0,1,4-4h84a4,4,0,0,1,4,4v4a4,4,0,1,0,8,0V24a12,12,0,0,0-12-12h-84a12,12,0,0,0-12,12V168a12,12,0,0,0,12,12h84a12,12,0,0,0,12-12v-4A4,4,0,0,0,123.86,160Z"/><path class="cls-2" d="M123.86,40a4,4,0,1,0,4,4A4,4,0,0,0,123.86,40Z"/><path class="cls-3" d="M83.86,60a4,4,0,1,0,4-4A4,4,0,0,0,83.86,60Z"/><path class="cls-4" d="M123.86,152a4,4,0,1,0-4-4A4,4,0,0,0,123.86,152Z"/></svg>