<svg id="Layer_1" data-name="Layer 1" xmlns="http://www.w3.org/2000/svg" viewBox="0 0 192 192"><defs><style>.cls-1{fill:#fff;}.cls-2{fill:#ff791f;}.cls-3{fill:#ffd400;}</style></defs><title>Segurança e dados - 1</title><path class="cls-1" d="M82.65,56.9a4,4,0,0,0-5.3-6A27.6,27.6,0,0,0,68,71.55v48.9A27.58,27.58,0,0,0,95.55,148h.9A27.58,27.58,0,0,0,124,120.45V71.55a27.6,27.6,0,0,0-9.35-20.65,4,4,0,1,0-5.3,6A19.56,19.56,0,0,1,116,71.55v48.9A19.57,19.57,0,0,1,96.45,140h-.9A19.57,19.57,0,0,1,76,120.45V71.55A19.56,19.56,0,0,1,82.65,56.9Z"/><path class="cls-1" d="M92,120a4,4,0,0,0,8,0V72a4,4,0,0,0-8,0Z"/><circle class="cls-2" cx="96" cy="164" r="4"/><circle class="cls-3" cx="96" cy="48" r="4"/><path class="cls-1" d="M99.24,24H92.76A44.81,44.81,0,0,0,48,68.76v54.48a44.75,44.75,0,0,0,30.74,42.5,4,4,0,0,0,2.52-7.59A36.77,36.77,0,0,1,56,123.24V68.76A36.8,36.8,0,0,1,92.76,32h6.48A36.8,36.8,0,0,1,136,68.76v54.48a36.77,36.77,0,0,1-25.26,34.91,4,4,0,0,0,1.26,7.79,4,4,0,0,0,1.26-.2A44.75,44.75,0,0,0,144,123.24V68.76A44.81,44.81,0,0,0,99.24,24Z"/></svg>