<svg id="Layer_1" data-name="Layer 1" xmlns="http://www.w3.org/2000/svg" viewBox="0 0 192 192"><defs><style>.cls-1{fill:#fff;}.cls-2{fill:#20ce66;}.cls-3{fill:#1ddfff;}</style></defs><title>Sonhos - 1</title><path class="cls-1" d="M175.48,78.69,103.75,18.85a12,12,0,0,0-15.48,0L16.49,78.71a12,12,0,0,0,1.63,19.48L36,108.45v3.8a4,4,0,0,0,8,0V95c7.3-2,27.82-7,49.6-7h4.81c21.77,0,42.29,5,49.59,7v49.91c-7.3,2-27.82,7-49.6,7H93.59c-21.77,0-42.29-5-49.59-7v-1.25a4,4,0,0,0-8,0V148a4,4,0,0,0,2.81,3.82c1.07.33,26.47,8.18,54.76,8.18h4.85c28.29,0,53.7-7.85,54.77-8.18A4,4,0,0,0,156,148v-39.5l8-4.59V156a4,4,0,0,0,8,0V100.5a4.24,4.24,0,0,0-.18-1.13L174,98.14a12,12,0,0,0,1.52-19.45Zm-22.29,9.49C152.12,87.85,126.71,80,98.43,80H93.58c-28.29,0-53.7,7.85-54.77,8.18A4,4,0,0,0,36,92v7.22L22.18,91.29a4,4,0,0,1-.54-6.46L93.42,25a4,4,0,0,1,5.18,0l71.74,59.85a4,4,0,0,1,1.4,3.37,3.91,3.91,0,0,1-1.84,3.06l-13.9,8V92A4,4,0,0,0,153.19,88.18Z"/><path class="cls-2" d="M168,168a4,4,0,1,0,4,4A4,4,0,0,0,168,168Z"/><circle class="cls-1" cx="84" cy="109.13" r="4"/><circle class="cls-1" cx="108" cy="109.13" r="4"/><path class="cls-1" d="M72.14,125.32a4,4,0,0,0,1.46,5.47,44.05,44.05,0,0,0,44,0,4,4,0,0,0-4-6.93,36,36,0,0,1-36,0A4,4,0,0,0,72.14,125.32Z"/><path class="cls-3" d="M40,132a4,4,0,1,0-4-4A4,4,0,0,0,40,132Z"/></svg>