<svg id="Layer_1" data-name="Layer 1" xmlns="http://www.w3.org/2000/svg" viewBox="0 0 192 192"><defs><style>.cls-1{fill:#9b80ff;}.cls-2{fill:#ffd400;}</style></defs><title>Sonhos - 9</title><path class="cls-1" d="M143.89,160.13a4,4,0,0,0-4,4,4,4,0,0,1-4,4h-80a4,4,0,0,1-4-4v-120a4,4,0,0,1,4-4h80a4,4,0,0,1,4,4V132a4,4,0,0,0,8,0V44.13a12,12,0,0,0-12-12H116.11V20a12,12,0,0,0-12-12h-16a12,12,0,0,0-12,12V32.13H55.89a12,12,0,0,0-12,12v120a12,12,0,0,0,12,12h4.22V180a4,4,0,0,0,8,0v-3.87h56V180a4,4,0,1,0,8,0v-3.87h3.78a12,12,0,0,0,12-12A4,4,0,0,0,143.89,160.13ZM84.11,20a4,4,0,0,1,4-4h16a4,4,0,0,1,4,4V32.13h-24Z"/><circle class="cls-1" cx="84.11" cy="90.11" r="4"/><circle class="cls-1" cx="108.11" cy="90.11" r="4"/><path class="cls-1" d="M72.65,106a4,4,0,0,0,1.46,5.46,44.05,44.05,0,0,0,44,0,4,4,0,1,0-4-6.92,36.08,36.08,0,0,1-36,0A4,4,0,0,0,72.65,106Z"/><path class="cls-2" d="M144.11,144a4,4,0,1,0,4,4A4,4,0,0,0,144.11,144Z"/></svg>