<?xml version="1.0" encoding="utf-8"?>
<!-- Generator: Adobe Illustrator 24.0.0, SVG Export Plug-In . SVG Version: 6.00 Build 0)  -->
<svg version="1.1" id="Layer_1" xmlns="http://www.w3.org/2000/svg" xmlns:xlink="http://www.w3.org/1999/xlink" x="0px" y="0px"
	 viewBox="0 0 1920 1080" style="enable-background:new 0 0 1920 1080;" xml:space="preserve">
<style type="text/css">
	.st0{fill:#0E51F8;}
	.st1{fill:#1BDAFF;}
</style>
<path id="Rectangle_30" class="st0" d="M959.2,497L959.2,497c23.7,0,43,19.3,43,43l0,0c0,23.7-19.3,43-43,43l0,0
	c-23.7,0-43-19.3-43-43l0,0C916.2,516.2,935.4,497,959.2,497z"/>
<g>
	<path class="st1" d="M975.3,539.6c-0.8,0-1.5,0.7-1.5,1.5c0,4.3-1.5,8.6-4.3,12c-2.6,3.2-6.3,5.5-10.3,6.5l0-10.6
		c0-0.8-0.7-1.5-1.5-1.5h-8.3l5.7-28.3c0.2-0.8-0.4-1.6-1.2-1.8c-0.1,0-0.2,0-0.3,0c-0.7,0-1.3,0.5-1.5,1.2l-6.1,30.1
		c-0.1,0.4,0,0.9,0.3,1.2c0.3,0.3,0.7,0.5,1.2,0.5h8.6l0,10.9c0,0.4,0.2,0.8,0.5,1.1c0.3,0.2,0.6,0.4,1,0.4c0.1,0,0.1,0,0.2,0
		c10.7-1.5,18.8-10.9,18.8-21.7C976.8,540.3,976.1,539.6,975.3,539.6z"/>
	<path class="st1" d="M944.3,527.8c-1.4,0-2.6,1.2-2.6,2.6s1.2,2.6,2.6,2.6s2.6-1.2,2.6-2.6S945.8,527.8,944.3,527.8z M946.4,530
		c0,0.1,0,0.3,0,0.4c0,0.1,0,0.3,0,0.4c0-0.1,0-0.3,0-0.4C946.4,530.3,946.4,530.2,946.4,530z M943.9,532.5c0.1,0,0.3,0,0.4,0
		c0.1,0,0.3,0,0.4,0c-0.1,0-0.3,0-0.4,0C944.2,532.6,944,532.5,943.9,532.5z"/>
	<path class="st1" d="M958.5,533.1c1.4,0,2.6-1.2,2.6-2.6s-1.2-2.6-2.6-2.6s-2.6,1.2-2.6,2.6S957.1,533.1,958.5,533.1z M958.1,532.5
		c0.1,0,0.3,0,0.4,0c0.1,0,0.3,0,0.4,0c-0.1,0-0.3,0-0.4,0C958.4,532.6,958.3,532.5,958.1,532.5z M960.7,530.5
		C960.7,530.5,960.7,530.4,960.7,530.5L960.7,530.5C960.7,530.4,960.7,530.5,960.7,530.5z"/>
</g>
</svg>
