<?xml version="1.0" encoding="utf-8"?>
<!-- Generator: Adobe Illustrator 24.0.0, SVG Export Plug-In . SVG Version: 6.00 Build 0)  -->
<svg version="1.1" id="Layer_1" xmlns="http://www.w3.org/2000/svg" xmlns:xlink="http://www.w3.org/1999/xlink" x="0px" y="0px"
	 viewBox="0 0 1920 1080" style="enable-background:new 0 0 1920 1080;" xml:space="preserve">
<style type="text/css">
	.st0{fill:#583CE3;}
	.st1{fill:#20CE66;}
</style>
<path id="Rectangle_28" class="st0" d="M959.2,497L959.2,497c23.7,0,43,19.3,43,43l0,0c0,23.7-19.3,43-43,43l0,0
	c-23.7,0-43-19.3-43-43l0,0C916.2,516.2,935.4,497,959.2,497z"/>
<g>
	<path class="st1" d="M952.6,537.3c0.3,0.4,0.8,0.7,1.3,0.7h7.4c0.8,0,1.5-0.7,1.5-1.5c0-0.8-0.7-1.5-1.5-1.5h-5.1l6.9-15.4
		c0.3-0.8,0-1.7-0.8-2c-0.2-0.1-0.4-0.1-0.6-0.1c-0.6,0-1.1,0.4-1.4,0.9l-7.9,17.5C952.3,536.3,952.4,536.9,952.6,537.3z"/>
	<path class="st1" d="M950.1,528.5c1.8,0,3.3-1.5,3.3-3.3c0-1.8-1.5-3.3-3.3-3.3c-1.8,0-3.3,1.5-3.3,3.3
		C946.8,527,948.3,528.5,950.1,528.5z M949.7,528c0.1,0,0.2,0,0.4,0c0.1,0,0.2,0,0.3,0c-0.1,0-0.2,0-0.3,0
		C949.9,528,949.8,528,949.7,528z M952.8,525.6c0-0.1,0-0.2,0-0.3c0-0.1,0-0.3,0-0.4c0,0.1,0,0.3,0,0.4
		C952.8,525.4,952.8,525.5,952.8,525.6z M950.1,522.5C950.1,522.5,950,522.5,950.1,522.5C950,522.5,950.1,522.5,950.1,522.5
		L950.1,522.5z"/>
	<path class="st1" d="M967.5,528.5c1.8,0,3.3-1.5,3.3-3.3c0-1.8-1.5-3.3-3.3-3.3s-3.3,1.5-3.3,3.3
		C964.3,527,965.7,528.5,967.5,528.5z M967.2,528c0.1,0,0.2,0,0.3,0c0.1,0,0.3,0,0.4,0c-0.1,0-0.3,0-0.4,0
		C967.4,528,967.3,528,967.2,528z M970.3,525.2C970.3,525.2,970.3,525.2,970.3,525.2C970.3,525.2,970.3,525.2,970.3,525.2
		C970.3,525.2,970.3,525.2,970.3,525.2z M967.6,522.5C967.6,522.5,967.6,522.5,967.6,522.5C967.5,522.5,967.5,522.5,967.6,522.5
		C967.6,522.5,967.6,522.5,967.6,522.5z"/>
	<path class="st1" d="M978,541h-37.8c-0.8,0-1.5,0.7-1.5,1.5c0,6.7,3.3,13,8.9,16.9c0.1,0.1,0.2,0.1,0.3,0.2
		c3.3,2.2,7.2,3.4,11.3,3.4c4.2,0,8.2-1.3,11.7-3.7c0.1-0.1,0.2-0.1,0.3-0.2c2.6-1.9,4.7-4.3,6.1-7.1c1.5-2.9,2.3-6.2,2.3-9.5
		C979.6,541.7,978.9,541,978,541z M952,550.2c-1.9,1.4-3.4,3.3-4.3,5.5c-3.4-3-5.6-7.1-6-11.6h34.6c-0.2,2.2-0.8,4.4-1.8,6.3
		c-1,1.9-2.2,3.5-3.8,5c-0.9-2.1-2.4-3.9-4.3-5.2c-2.1-1.5-4.6-2.3-7.2-2.3C956.7,547.8,954.2,548.7,952,550.2z M960.6,559.8v-5.5
		c0-0.8-0.7-1.5-1.5-1.5c-0.8,0-1.5,0.7-1.5,1.5v5.5c-2.6-0.2-5.1-1-7.3-2.3c1.2-3.9,4.9-6.6,9-6.6c4,0,7.6,2.6,8.9,6.4
		C966,558.7,963.4,559.6,960.6,559.8z"/>
</g>
</svg>
