<?xml version="1.0" encoding="utf-8"?>
<!-- Generator: Adobe Illustrator 24.0.0, SVG Export Plug-In . SVG Version: 6.00 Build 0)  -->
<svg version="1.1" id="Layer_1" xmlns="http://www.w3.org/2000/svg" xmlns:xlink="http://www.w3.org/1999/xlink" x="0px" y="0px"
	 viewBox="0 0 1920 1080" style="enable-background:new 0 0 1920 1080;" xml:space="preserve">
<style type="text/css">
	.st0{fill:#22CE64;}
	.st1{fill:#424242;}
</style>
<path id="Rectangle_29" class="st0" d="M959.2,497L959.2,497c23.7,0,43,19.3,43,43l0,0c0,23.7-19.3,43-43,43l0,0
	c-23.7,0-43-19.3-43-43l0,0C916.2,516.2,935.4,497,959.2,497z"/>
<g>
	<path class="st1" d="M965.2,534.5c2,0,4-0.8,5.4-2.2c0.6-0.6,0.6-1.5,0-2.1c-0.3-0.3-0.6-0.4-1-0.4c-0.4,0-0.8,0.2-1,0.4
		c-0.9,0.9-2.1,1.4-3.3,1.4c-1.3,0-2.4-0.5-3.3-1.4c-0.3-0.3-0.6-0.4-1-0.4s-0.8,0.2-1,0.4c-0.3,0.3-0.4,0.6-0.4,1
		c0,0.4,0.2,0.8,0.4,1C961.3,533.7,963.2,534.5,965.2,534.5z"/>
	<path class="st1" d="M977.8,547.7c-0.2-0.1-0.4-0.1-0.6-0.1c-0.6,0-1.1,0.4-1.4,0.9c-1.2,2.8-3.1,5.3-5.5,7.3
		c-2.2,1.8-4.8,3.1-7.6,3.8l0-10.6c0-0.8-0.7-1.5-1.5-1.5h-8.3l5.7-28.2c0.1-0.4,0-0.8-0.2-1.1c-0.2-0.3-0.5-0.6-0.9-0.6
		c-0.1,0-0.2,0-0.3,0c-0.7,0-1.3,0.5-1.4,1.2l-6.1,30c-0.1,0.4,0,0.9,0.3,1.2c0.3,0.3,0.7,0.5,1.1,0.5h8.6v10.9
		c0,0.4,0.2,0.8,0.5,1.1c0.3,0.2,0.6,0.4,1,0.4c0.1,0,0.1,0,0.2,0c7.5-1.1,14-6.1,17-13.1C978.9,548.9,978.6,548,977.8,547.7z"/>
	<path class="st1" d="M950.3,531.2c0-0.4-0.2-0.8-0.4-1c-0.3-0.3-0.6-0.4-1-0.4s-0.8,0.2-1,0.4c-0.9,0.9-2.1,1.4-3.3,1.4
		c-1.3,0-2.4-0.5-3.3-1.4c-0.3-0.3-0.6-0.4-1-0.4s-0.8,0.2-1,0.4c-0.3,0.3-0.4,0.6-0.4,1c0,0.4,0.2,0.8,0.4,1
		c1.4,1.4,3.4,2.2,5.4,2.2c2,0,4-0.8,5.4-2.2C950.2,532,950.3,531.6,950.3,531.2z"/>
</g>
</svg>
